{"accessors" : [{"bufferView" : 0, "byteOffset" : 0, "componentType" : 5123, "count" : 6042, "type" : "SCALAR", "max" : [5955], "min" : [0]}, {"bufferView" : 1, "byteOffset" : 0, "componentType" : 5126, "count" : 5956, "type" : "VEC3", "max" : [2.9020001888275146, 2.322000026702881, 11.116000175476074], "min" : [-2.9680001735687256, -3.4860000610351562, -0.004000000189989805], "name" : "POSITION"}, {"bufferView" : 1, "byteOffset" : 12, "componentType" : 5126, "count" : 5956, "type" : "VEC3", "max" : [1.0000044107437134, 0.9960731267929077, 1.0000044107437134], "min" : [-0.9907679557800293, -0.9996885657310486, -1.0000044107437134], "name" : "NORMAL"}], "asset" : {"generator" : "Aspose.3D 22.12", "version" : "2.0"}, "buffers" : [{"uri" : "data:application/octet-stream;base64,", "byteLength" : 157100}], "bufferViews" : [{"buffer" : 0, "byteOffset" : 0, "byteLength" : 12084, "target" : 34963}, {"buffer" : 0, "byteOffset" : 12088, "byteLength" : 145008, "byteStride" : 24, "target" : 34962}], "meshes" : [{"primitives" : [{"attributes" : {"POSITION" : 1, "NORMAL" : 2}, "indices" : 0, "mode" : 4}], "name" : ""}], "nodes" : [{"mesh" : 0, "name" : ""}], "scene" : 0, "scenes" : [{"nodes" : [0]}]}