{"accessors" : [{"bufferView" : 0, "byteOffset" : 0, "componentType" : 5123, "count" : 4848, "type" : "SCALAR", "max" : [4847], "min" : [0]}, {"bufferView" : 1, "byteOffset" : 0, "componentType" : 5126, "count" : 4848, "type" : "VEC3", "max" : [4.712000370025635, 3.576000213623047, 17.030000686645508], "min" : [-2.432000160217285, -3.578000068664551, 10.406000137329102], "name" : "POSITION"}, {"bufferView" : 1, "byteOffset" : 12, "componentType" : 5126, "count" : 4848, "type" : "VEC3", "max" : [0.9983811974525452, 0.9999806880950928, 0.9981923699378967], "min" : [-0.9986631870269775, -1.0000044107437134, -0.998740017414093], "name" : "NORMAL"}], "asset" : {"generator" : "Aspose.3D 22.12", "version" : "2.0"}, "buffers" : [{"uri" : "data:application/octet-stream;base64,", "byteLength" : 126056}], "bufferViews" : [{"buffer" : 0, "byteOffset" : 0, "byteLength" : 9696, "target" : 34963}, {"buffer" : 0, "byteOffset" : 9700, "byteLength" : 116352, "byteStride" : 24, "target" : 34962}], "meshes" : [{"primitives" : [{"attributes" : {"POSITION" : 1, "NORMAL" : 2}, "indices" : 0, "mode" : 4}], "name" : ""}], "nodes" : [{"mesh" : 0, "name" : ""}], "scene" : 0, "scenes" : [{"nodes" : [0]}]}