{"accessors" : [{"bufferView" : 0, "byteOffset" : 0, "componentType" : 5123, "count" : 5514, "type" : "SCALAR", "max" : [5476], "min" : [0]}, {"bufferView" : 1, "byteOffset" : 0, "componentType" : 5126, "count" : 5477, "type" : "VEC3", "max" : [3.4840002059936523, 3.4260001182556152, 11.444000244140625], "min" : [-4.078000068664551, -4.486000061035156, -0.004000000189989805], "name" : "POSITION"}, {"bufferView" : 1, "byteOffset" : 12, "componentType" : 5126, "count" : 5477, "type" : "VEC3", "max" : [0.9961681962013245, 1.0000044107437134, 1.0000044107437134], "min" : [-0.99991375207901, -1.0000044107437134, -1.0000044107437134], "name" : "NORMAL"}], "asset" : {"generator" : "Aspose.3D 22.12", "version" : "2.0"}, "buffers" : [{"uri" : "data:application/octet-stream;base64,", "byteLength" : 143372}], "bufferViews" : [{"buffer" : 0, "byteOffset" : 0, "byteLength" : 11028, "target" : 34963}, {"buffer" : 0, "byteOffset" : 11032, "byteLength" : 132336, "byteStride" : 24, "target" : 34962}], "meshes" : [{"primitives" : [{"attributes" : {"POSITION" : 1, "NORMAL" : 2}, "indices" : 0, "mode" : 4}], "name" : ""}], "nodes" : [{"mesh" : 0, "name" : ""}], "scene" : 0, "scenes" : [{"nodes" : [0]}]}