{"accessors" : [{"bufferView" : 0, "byteOffset" : 0, "componentType" : 5123, "count" : 5088, "type" : "SCALAR", "max" : [5038], "min" : [0]}, {"bufferView" : 1, "byteOffset" : 0, "componentType" : 5126, "count" : 5039, "type" : "VEC3", "max" : [3.750000238418579, 3.948000192642212, 11.43600082397461], "min" : [-3.180000066757202, -3.140000104904175, -0.004000000189989805], "name" : "POSITION"}, {"bufferView" : 1, "byteOffset" : 12, "componentType" : 5126, "count" : 5039, "type" : "VEC3", "max" : [1.0000044107437134, 0.9984118342399597, 1.0000044107437134], "min" : [-1.0000044107437134, -0.9997926950454712, -1.0000044107437134], "name" : "NORMAL"}], "asset" : {"generator" : "Aspose.3D 22.12", "version" : "2.0"}, "buffers" : [{"uri" : "data:application/octet-stream;base64,", "byteLength" : 132296}], "bufferViews" : [{"buffer" : 0, "byteOffset" : 0, "byteLength" : 10176, "target" : 34963}, {"buffer" : 0, "byteOffset" : 10180, "byteLength" : 122112, "byteStride" : 24, "target" : 34962}], "meshes" : [{"primitives" : [{"attributes" : {"POSITION" : 1, "NORMAL" : 2}, "indices" : 0, "mode" : 4}], "name" : ""}], "nodes" : [{"mesh" : 0, "name" : ""}], "scene" : 0, "scenes" : [{"nodes" : [0]}]}