{"accessors" : [{"bufferView" : 0, "byteOffset" : 0, "componentType" : 5123, "count" : 50898, "type" : "SCALAR", "max" : [50542], "min" : [0]}, {"bufferView" : 1, "byteOffset" : 0, "componentType" : 5126, "count" : 50543, "type" : "VEC3", "max" : [12.242118835449219, 4.596863746643066, 17.170000076293945], "min" : [-12.85457992553711, -15.403251647949219, -0.004000000189989805], "name" : "POSITION"}, {"bufferView" : 1, "byteOffset" : 12, "componentType" : 5126, "count" : 50543, "type" : "VEC3", "max" : [0.9993459582328796, 0.9999213814735413, 1.0000044107437134], "min" : [-0.999893844127655, -0.999838650226593, -1.0000044107437134], "name" : "NORMAL"}], "asset" : {"generator" : "Aspose.3D 22.12", "version" : "2.0"}, "buffers" : [{"uri" : "data:application/octet-stream;base64,", "byteLength" : 1323356}], "bufferViews" : [{"buffer" : 0, "byteOffset" : 0, "byteLength" : 101796, "target" : 34963}, {"buffer" : 0, "byteOffset" : 101800, "byteLength" : 1221552, "byteStride" : 24, "target" : 34962}], "meshes" : [{"primitives" : [{"attributes" : {"POSITION" : 1, "NORMAL" : 2}, "indices" : 0, "mode" : 4}], "name" : ""}], "nodes" : [{"mesh" : 0, "name" : ""}], "scene" : 0, "scenes" : [{"nodes" : [0]}]}